<?xml version="1.0" encoding="UTF-8"?>
<svg id="Ebene_1" data-name="Ebene 1" xmlns="http://www.w3.org/2000/svg" viewBox="0 0 283.46 283.46">
  <defs>
    <style>
      .cls-1 {
        fill: #fddc4b;
      }

      .cls-2 {
        fill: #a1140e;
      }

      .cls-3 {
        fill: #1f2a62;
      }
    </style>
  </defs>
  <path class="cls-1" d="M145.66,213.63c38.03,0,68.86-30.83,68.86-68.86s-30.83-68.86-68.86-68.86-68.86,30.83-68.86,68.86,30.83,68.86,68.86,68.86"/>
  <path class="cls-2" d="M57.64,110.35c28.05,2.8,55.59,14.57,69.93,6.87,21.19-11.39,21.31-28.9,32.52-62.98-2.41,48.21,5.6,66.29,5.6,66.29,1.8,8.73,35.54,9.15,68.03,9.1-33.82,5.9-59.29,12.03-51.46,30.95,3.4,13.39,11.33,30.58,21.21,51.92-18.92-22.76-35.59-44.72-54.7-44.11-11.18,1.27-37.02,27.85-65.23,60.83,13.59-37.71,38.31-67.19,29.67-84.8.91-5.65-55.55-34.07-55.55-34.07"/>
  <path class="cls-3" d="M125.54,127.27c7.33,2.63,13.92,7.62,18.28,6.51,6.44-1.64,7.64-6.32,12.92-14.7-3.87,12.76-2.93,18.14-2.93,18.14-.1,2.46,8.91,4.83,17.62,6.98-9.46-.68-16.69-.74-15.86,4.85.02,3.82.99,8.95,2.22,15.33-3.55-7.36-6.55-14.36-11.71-15.47-3.08-.41-11.78,4.99-21.54,11.94,6.16-9.2,14.75-15.45,13.62-20.74.62-1.45-12.61-12.84-12.61-12.84"/>
</svg>